<svg
 xmlns="http://www.w3.org/2000/svg"
 xmlns:xlink="http://www.w3.org/1999/xlink"
 width="750px" height="623px">
<defs>
<linearGradient id="PSgrad_0" x1="0%" x2="22.495%" y1="97.437%" y2="0%">
  <stop offset="0%" stop-color="rgb(255,143,90)" stop-opacity="1" />
  <stop offset="99%" stop-color="rgb(255,47,150)" stop-opacity="1" />
</linearGradient>

</defs>
<path fill-rule="evenodd"  fill="rgb(96, 85, 196)"
 d="M322.435,32.949 C409.452,-8.194 491.571,-8.321 560.227,22.564 C629.060,53.198 684.431,114.844 722.041,191.455 C758.130,268.827 758.092,351.933 728.618,419.161 C698.735,487.391 648.998,538.832 581.222,575.544 C545.328,594.029 507.599,606.693 459.634,614.466 C412.302,622.127 354.735,624.896 293.743,620.945 C172.705,613.344 37.051,577.659 8.444,497.168 C-7.768,457.201 2.408,411.385 22.564,365.279 C43.051,319.105 73.517,272.641 105.505,229.821 C137.823,186.934 171.663,147.692 206.502,114.411 C241.672,81.064 277.840,53.678 322.435,32.949 L322.435,32.949 Z"/>
<path fill="url(#PSgrad_0)"
 d="M322.435,32.949 C409.452,-8.194 491.571,-8.321 560.227,22.564 C629.060,53.198 684.431,114.844 722.041,191.455 C758.130,268.827 758.092,351.933 728.618,419.161 C698.735,487.391 648.998,538.832 581.222,575.544 C545.328,594.029 507.599,606.693 459.634,614.466 C412.302,622.127 354.735,624.896 293.743,620.945 C172.705,613.344 37.051,577.659 8.444,497.168 C-7.768,457.201 2.408,411.385 22.564,365.279 C43.051,319.105 73.517,272.641 105.505,229.821 C137.823,186.934 171.663,147.692 206.502,114.411 C241.672,81.064 277.840,53.678 322.435,32.949 L322.435,32.949 Z"/>
</svg>
